Coordinates
version=1
nRows=9
nColumns=24
inDegrees=yes

Units are S.I. units (second, meters, Newtons, ...)
Angles are in degrees.

endheader
time	pelvis_tilt	pelvis_list	pelvis_rotation	pelvis_tx	pelvis_ty	pelvis_tz	hip_flexion_r	hip_adduction_r	hip_rotation_r	knee_angle_r	ankle_angle_r	subtalar_angle_r	mtp_angle_r	hip_flexion_l	hip_adduction_l	hip_rotation_l	knee_angle_l	ankle_angle_l	subtalar_angle_l	mtp_angle_l	lumbar_extension	lumbar_bending	lumbar_rotation
      0.63383333	     -3.57873395	     -4.48756902	      5.92055822	     -0.45826322	      0.89596310	      0.32127560	     15.53423459	     10.73658157	     -1.85569991	    -27.41169519	     15.67108215	     -2.55941615	      2.93926259	     26.40066410	     -8.61079959	     -4.24464915	    -78.67464673	      1.84832782	     -8.37511950	      2.02594827	     -3.56884012	      5.24689202	      0.20212237
      0.63800000	     -3.64911884	     -4.28691284	      5.78221894	     -0.45276835	      0.89717326	      0.32147549	     14.87239088	     10.59033930	     -1.63621767	    -26.78879583	     15.66251220	     -2.46666114	      2.96308605	     27.03562305	     -8.30119718	     -4.45751841	    -78.16107671	      2.08766993	     -8.36470782	      1.99522614	     -3.50947907	      5.01521825	      0.47071926
      0.64216667	     -3.69592812	     -4.08926512	      5.63777101	     -0.44723333	      0.89842260	      0.32169086	     14.17028270	     10.45136494	     -1.40287455	    -26.13600951	     15.66579983	     -2.39902776	      3.01169587	     27.61363199	     -8.00403098	     -4.67289087	    -77.56098249	      2.31910592	     -8.31213880	      1.94631889	     -3.47083182	      4.79259093	      0.83274329
      0.64633333	     -3.74181827	     -3.86514610	      5.47694909	     -0.44168387	      0.89968159	      0.32190999	     13.46459613	     10.27919294	     -1.16063780	    -25.48160597	     15.62553382	     -2.32050866	      3.04715940	     28.15179515	     -7.68138276	     -4.90684127	    -76.87026013	      2.55611805	     -8.22536741	      1.92196540	     -3.43205947	      4.53371587	      1.04164776
      0.65050000	     -3.78759695	     -3.63318327	      5.29583407	     -0.43613200	      0.90093562	      0.32213518	     12.75912233	     10.09446951	     -0.90884029	    -24.82429496	     15.53091548	     -2.21096185	      3.06828521	     28.65655519	     -7.35571819	     -5.15315213	    -76.09722396	      2.78540617	     -8.11945451	      1.91434500	     -3.39634397	      4.27375310	      1.21460349
      0.65466667	     -3.77359956	     -3.40694633	      5.11712921	     -0.43052696	      0.90225750	      0.32238251	     11.96543865	      9.92337656	     -0.64259402	    -24.11886875	     15.49103188	     -2.17017692	      3.10986139	     29.06773465	     -7.05469932	     -5.40031717	    -75.25035913	      3.01344741	     -7.95924545	      1.90728729	     -3.42173745	      4.02018840	      1.53995757
      0.65883333	     -3.77438813	     -3.17120386	      4.91962119	     -0.42492475	      0.90353656	      0.32262996	     11.19393945	      9.73363494	     -0.37337979	    -23.42103805	     15.39541733	     -2.10627184	      3.14945847	     29.46426774	     -6.74489653	     -5.65628573	    -74.32796851	      3.23212234	     -7.78667750	      1.90877135	     -3.42805673	      3.75668551	      1.80270243
      0.66300000	     -3.75932816	     -2.94195379	      4.71566321	     -0.41932505	      0.90480336	      0.32290058	     10.39908289	      9.55038042	     -0.08975399	    -22.70084349	     15.28143829	     -2.04511958	      3.19719928	     29.82261589	     -6.44874886	     -5.90394948	    -73.34085663	      3.44476246	     -7.59573335	      1.91789171	     -3.46113770	      3.49726271	      2.08825890
      0.66716667	     -3.73653866	     -2.70500285	      4.50160953	     -0.41371515	      0.90604659	      0.32316809	      9.60044395	      9.35076154	      0.18358569	    -21.98676795	     15.16211871	     -1.98666210	      3.24193713	     30.14277936	     -6.15157409	     -6.16114048	    -72.28310034	      3.64186356	     -7.39011641	      1.93344033	     -3.49035176	      3.23365251	      2.34150720
